Coordinates
version=1
nRows=17
nColumns=36
inDegrees=yes

Units are S.I. units (second, meters, Newtons, ...)
If the header above contains a line with 'inDegrees', this indicates whether rotational values are in degrees (yes) or radians (no).

endheader
time	pelvis_tilt	pelvis_list	pelvis_rotation	pelvis_tx	pelvis_ty	pelvis_tz	hip_flexion_r	hip_adduction_r	hip_rotation_r	knee_angle_r	knee_angle_r_beta	ankle_angle_r	subtalar_angle_r	mtp_angle_r	hip_flexion_l	hip_adduction_l	hip_rotation_l	knee_angle_l	knee_angle_l_beta	ankle_angle_l	subtalar_angle_l	mtp_angle_l	lumbar_extension	lumbar_bending	lumbar_rotation	arm_flex_r	arm_add_r	arm_rot_r	elbow_flex_r	pro_sup_r	arm_flex_l	arm_add_l	arm_rot_l	elbow_flex_l	pro_sup_l
      0.00000000	      1.50769410	     -2.34714250	     14.97427071	     -0.40075535	      1.21900258	      0.05878340	      5.38016745	      0.70771485	     -1.33636723	     11.25758846	      0.19648198	     10.26915383	    -12.88605577	     -6.11699145	      3.23306566	      0.45911033	     -1.70093180	      5.53969979	      0.09668600	      6.86542076	     -9.98256680	     -6.11699145	     -1.84507339	      2.24291292	      2.74515400	     -1.97397796	    -11.61978642	     17.35179336	     29.82411687	     76.14164509	    -11.75591324	    -12.18876480	     13.36893551	     77.27518914	     83.58095254
      0.01666670	      0.96841236	     -3.10153773	     14.80270402	     -0.40010039	      1.21616009	      0.05817387	      6.05631801	      1.18127178	     -1.07493477	     10.13848864	      0.17695001	     10.20842180	    -11.79620656	     -6.22221257	      3.99073900	      0.24984659	     -3.24347304	      5.22332345	      0.09116419	      8.74838061	     -8.93403372	     -6.22221257	      0.20605852	      2.90710539	      3.17447855	     -2.69221924	    -12.35081556	     21.62662100	     30.83653498	     78.39287094	    -11.19306957	    -12.07947754	     15.02766548	     78.36604589	     85.33082427
      0.03333330	      0.52622620	     -2.78404057	     14.31389555	     -0.39948814	      1.21558192	      0.05879036	      5.89813452	      0.56122463	     -1.20755606	      8.81367856	      0.15382771	      9.51878631	    -11.39080074	     -6.29709863	      4.11573702	      0.65260447	     -5.06872257	      4.80473922	      0.08385852	      9.34494869	     -7.23308016	     -6.29709863	      0.99509136	      2.37217149	      4.03393377	     -2.69820306	    -12.27431536	     22.68232974	     30.34777928	     78.73328464	    -10.41753680	    -12.10785797	     15.01444042	     77.92890520	     85.22492753
      0.05000000	      0.39752768	     -2.64068641	     13.74864578	     -0.39972368	      1.21561811	      0.05919317	      5.74936711	      0.30656912	     -1.15607217	      8.00383229	      0.13969323	      9.48948782	    -10.68406817	     -6.38434039	      3.66398186	      0.87064485	     -6.69957244	      3.70250178	      0.06462085	      9.39271685	     -5.77476519	     -6.38434039	      1.21761184	      2.17972963	      4.84215144	     -2.92771461	    -12.16422400	     23.76665455	     29.88565329	     78.97257137	     -9.77003669	    -11.79622354	     14.77312048	     76.83809669	     85.08555184
      0.06666670	      0.23030491	     -2.53342621	     13.25441142	     -0.39930411	      1.21594555	      0.05963849	      5.64740660	      0.18006004	     -0.87084988	      7.44757872	      0.12998477	      9.13661752	    -10.48076941	     -6.67281271	      3.52284526	      1.11331298	     -7.62253330	      3.07997719	      0.05375574	      9.46944519	     -4.61025167	     -6.67281271	      1.52504501	      2.22522548	      4.75554461	     -2.74154890	    -12.00473573	     24.18121428	     29.19014935	     83.71090230	    -10.14920647	    -11.41473832	     13.02167294	     75.95864910	     89.83240564
      0.08333330	      0.20330777	     -2.40220947	     12.94244822	     -0.39956673	      1.21570811	      0.05970243	      5.31511778	      0.07850453	     -0.69646150	      6.77997764	      0.11833293	      8.88657323	    -10.20916547	     -6.72617914	      3.26622308	      1.30742908	     -7.91108875	      2.56955336	      0.04484717	      9.42903071	     -3.90734230	     -6.72617914	      1.59366033	      2.17635421	      5.28699300	     -2.88881028	    -11.77543209	     23.86422126	     28.92950682	     83.00970022	     -9.77588440	    -11.16218887	     12.31375078	     74.10570854	     89.07371098
      0.10000000	      0.24669382	     -2.33800074	     12.73182579	     -0.39961078	      1.21581226	      0.06007208	      5.10390736	      0.05995299	     -0.51472828	      6.53874340	      0.11412260	      8.44415185	    -10.21788358	     -6.76085883	      3.04843873	      1.35308538	     -8.16240984	      2.31527570	      0.04040918	      9.34881410	     -3.25243875	     -6.76085883	      1.57674251	      2.15407540	      5.37105896	     -2.67689050	    -11.56463367	     23.54394522	     28.37133182	     82.71368357	     -9.29192527	    -11.00695304	     11.56452518	     70.85199031	     88.75338344
      0.11666670	      0.15574644	     -2.20037583	     12.51771517	     -0.39974294	      1.21526979	      0.06030396	      5.01030865	     -0.03371126	     -0.08780365	      6.18360656	      0.10792429	      8.11844309	    -10.15913798	     -6.91499929	      3.02725307	      1.48441544	     -8.23770584	      2.24287826	      0.03914561	      9.43873454	     -2.46632991	     -6.91499929	      1.87261231	      1.98370511	      5.68498909	     -2.37776732	    -11.24037194	     22.78660412	     27.36760941	     81.87246809	     -8.92169175	    -11.05489326	     11.35039332	     67.01230051	     87.98223971
      0.13333330	      0.43990832	     -2.12135399	     12.40480946	     -0.39991084	      1.21580206	      0.06049340	      4.50843999	     -0.03034838	     -0.07510797	      5.89637321	      0.10291113	      7.77449255	     -9.87406635	     -7.00357225	      2.61690162	      1.48994689	     -8.23114117	      2.08578998	      0.03640390	      9.36512238	     -2.32118387	     -7.00357225	      1.56930309	      2.00128617	      5.53632850	     -2.22396541	    -11.31267902	     22.33697867	     27.89934547	     80.20256529	     -8.79438095	    -11.10698425	     10.83322572	     63.56049346	     86.05150323
      0.15000000	      0.16645088	     -2.10360832	     12.23240875	     -0.40749992	      1.21427502	      0.05809554	      4.95992295	     -0.17030042	      0.06431345	      5.98973334	      0.10454057	      7.44608612	    -10.12601804	     -7.01892189	      2.95870542	      1.62905546	     -8.10836642	      2.13197178	      0.03720993	      9.49404287	     -2.12629699	     -7.01892189	      1.77965127	      2.09215822	      5.36481527	     -1.58892127	    -11.32221589	     21.92576249	     27.39913787	     80.59354728	     -8.22177362	    -11.20893206	     10.62801221	     60.05023666	     86.74104300
      0.16666670	      0.15409858	     -2.08314900	     12.19193785	     -0.40745250	      1.21468036	      0.05823075	      5.01139730	     -0.22455215	      0.31021901	      5.92279684	      0.10337231	      7.07998975	    -10.37603216	     -7.11157134	      3.07826046	      1.70556075	     -7.99852969	      2.08295986	      0.03635451	      9.37087315	     -2.20616099	     -7.11157134	      1.67732860	      2.28684110	      5.37389620	     -0.90025073	    -11.32915752	     21.13959516	     26.74984475	     80.20162327	     -6.76068779	    -11.53216785	     12.72902384	     55.51583978	     86.77451893
      0.18333330	      0.29150151	     -2.08178330	     12.17675490	     -0.40033585	      1.21523832	      0.06080419	      4.82348956	     -0.11092416	      0.36385039	      5.94718188	      0.10379791	      6.97544464	    -10.26374289	     -7.12905188	      2.88488125	      1.64677238	     -7.96147083	      2.05609153	      0.03588557	      9.33021732	     -2.00985579	     -7.12905188	      1.42920442	      2.40102170	      5.06087823	     -0.61011354	    -11.13254873	     20.66704414	     26.54112094	     80.64245531	     -5.80421146	    -11.52827415	     13.50848939	     51.37379043	     87.42042272
      0.20000000	      0.23670363	     -2.12647811	     12.16456271	     -0.40749337	      1.21477551	      0.05830738	      4.96210850	     -0.13817875	      0.17029973	      6.05964559	      0.10576077	      6.82251827	    -10.23552445	     -7.14440537	      3.01205598	      1.67378445	     -7.83347984	      2.11247866	      0.03686971	      9.29563011	     -2.11527357	     -7.14440537	      1.31238524	      2.49902113	      4.81947327	     -0.24268258	    -11.15355668	     20.13492941	     26.53073678	     80.92602081	     -4.77643488	    -11.51458268	     14.59291306	     47.26668732	     87.76437374
      0.21666670	      0.34801788	     -1.98878912	     12.18319886	     -0.40070061	      1.21834287	      0.06094182	      4.67514149	     -0.20525602	      0.34985375	      5.76461251	      0.10061147	      6.65309755	    -10.14740991	     -7.14783670	      2.81372420	      1.73117741	     -7.94589843	      2.04236694	      0.03564603	      9.04447743	     -2.05118487	     -7.14783670	      1.03488146	      2.26900388	      3.93216581	      0.01834108	    -10.84292053	     19.94275541	     26.87079291	     80.95160429	     -4.81394225	    -11.78483074	     14.89177249	     44.94713654	     87.79368402
      0.23333330	      0.50094181	     -2.08983213	     12.24670368	     -0.40039724	      1.21571874	      0.06109992	      4.46153770	     -0.04089694	      0.17724869	      5.68879885	      0.09928827	      6.44196369	    -10.12386274	     -7.35848310	      2.61093791	      1.54759622	     -7.93928492	      1.99819438	      0.03487507	      9.11887861	     -1.75323283	     -7.35848310	      1.02411885	      2.48850550	      5.63555579	     -1.52006082	    -10.67786763	     15.95528674	     27.61039941	     82.23394451	     -1.98516913	    -11.57239761	     19.89748854	     38.06448332	     84.97577516
      0.25000000	      0.75442847	     -2.11905033	     12.29936094	     -0.40072723	      1.21596108	      0.06094134	      4.07524458	      0.04184341	      0.01504502	      5.59601148	      0.09766883	      6.38990356	    -10.10772325	     -7.38777264	      2.31728553	      1.42999593	     -7.85199645	      1.98456030	      0.03463711	      9.29936440	     -1.68356377	     -7.38777264	      0.68068986	      2.51135996	      5.44636452	     -1.36311724	    -10.63336378	     16.22138549	     27.57457217	     80.48908868	     -1.75769115	    -11.25979927	     19.79444524	     34.36435235	     82.40110647
      0.26666670	      0.74683947	     -2.20070351	     12.27131915	     -0.40082660	      1.21636134	      0.06114797	      4.04639398	      0.19617906	      0.18689543	      5.65697410	      0.09873282	      6.21399116	    -10.31324258	     -7.40668643	      2.28665006	      1.27045247	     -7.96107282	      1.93147144	      0.03371054	      9.26883047	     -1.62625694	     -7.40668643	      0.79763446	      2.49356651	      5.25593951	     -1.14772068	    -10.52184704	     16.65573856	     27.11478535	     79.79546423	     -1.45041761	    -11.04624047	     20.30097624	     30.42526014	     80.81264439
